<svg version="1.1" xmlns="http://www.w3.org/2000/svg"
	viewBox="0 0 930.0741312667728 615.8654601320626" width="1860.1482625335457"
	height="1231.7309202641252"><!-- svg-source:excalidraw -->
	<metadata></metadata>
	<defs>
		<style class="style-fonts">
			@import "base.css";</style>
	</defs>
	<rect x="0" y="0" width="930.0741312667728" height="615.8654601320626" fill="#ffffff"></rect>
	<g stroke-linecap="round">
		<g stroke-opacity="0.8" fill-opacity="0.8"
			transform="translate(68.47877704422518 208.9132970130239) rotate(0 376.30776994251835 -71.64368374591231)">
			<path
				d="M0.1 -0.38 C125.3 -24.34, 626.62 -119.64, 751.92 -143.51 M-1.31 -1.62 C124.23 -25.42, 628.32 -118.62, 754.27 -142.1"
				stroke="#e03131" stroke-width="4" fill="none"></path>
		</g>
	</g>

	<g
		transform="translate(76.733365091302 153.88577040794178) rotate(348.7737682223341 88.6656799316406 12.5)">
		<text x="0" y="17.619999999999997"
			 font-size="20px"
			fill="#e03131" text-anchor="start" style="white-space: pre;" direction="ltr"
			dominant-baseline="alphabetic">Adobe Photoshop</text>
	</g>
	<g stroke-linecap="round">
		<g transform="translate(52.8262939453125 10.521923755109356) rotate(0 0 288.983169555664)">
			<path
				d="M1.57 -0.52 C0.42 142.45, 0.93 284.32, 1.3 579.56 M-0.26 0.61 C-0.94 123.16, -0.73 247.9, 0.62 578.29"
				stroke="#1e1e1e" stroke-width="1" fill="none"></path>
		</g>
	</g>

	<g stroke-linecap="round">
		<g transform="translate(19.66558837890625 561.9343077883126) rotate(0 450.5327274579555 0)">
			<path
				d="M-0.18 -0.39 C231.66 0.99, 463.97 3.95, 899.7 -0.37 M0.14 -0.8 C202.3 -5.47, 404.54 -5.13, 900.41 0.6"
				stroke="#1e1e1e" stroke-width="1" fill="none"></path>
		</g>
	</g>

	<g transform="translate(630.9815063476562 570.8654601320626) rotate(0 136.55593872070312 17.5)">
		<text x="273.11187744140625" y="24.668"
			 font-size="28px"
			fill="#1e1e1e" text-anchor="end" style="white-space: pre;" direction="ltr"
			dominant-baseline="alphabetic">Use case complexity</text>
	</g>
	<g
		transform="translate(-51.697967529296875 72.53367302268748) rotate(270 79.19796752929688 17.5)">
		<text x="158.39593505859375" y="24.668"
			 font-size="28px"
			fill="#1e1e1e" text-anchor="end" style="white-space: pre;" direction="ltr"
			dominant-baseline="alphabetic">User effort</text>
	</g>
	<g stroke-linecap="round">
		<g stroke-opacity="0.8" fill-opacity="0.8"
			transform="translate(75.71082994771433 516.3527406979671) rotate(0 76.42427707782085 -17.539311933839258)">
			<path
				d="M0.21 0.09 C25.42 -5.77, 126.4 -28.29, 151.82 -34.07 M-1.14 -0.91 C24.39 -6.58, 128.49 -29.71, 153.99 -35.67"
				stroke="#f08c00" stroke-width="4" fill="none"></path>
		</g>
	</g>

	<g transform="translate(293.5478067308301 444.12768757612946) rotate(0 88.66567993164057 25)">
		<text x="0" y="17.619999999999997"
			 font-size="20px"
			fill="#f08c00" text-anchor="start" style="white-space: pre;" direction="ltr"
			dominant-baseline="alphabetic">Instagram's</text>
		<text x="0" y="42.62"
			font-size="20px" fill="#f08c00" text-anchor="start" style="white-space: pre;"
			direction="ltr" dominant-baseline="alphabetic">photo editor</text>
	</g>
	<g transform="translate(238.65853305834446 456.542772857723) rotate(0 18 22.5)">
		<text x="18" y="31.716"
			font-size="36px" fill="#f08c00" text-anchor="middle" style="white-space: pre;"
			direction="ltr" dominant-baseline="alphabetic">😢</text>
	</g>
</svg>
