<svg version="1.1" xmlns="http://www.w3.org/2000/svg"
	viewBox="0 0 931.4102030545473 626.4573364257815" width="1862.8204061090946"
	height="1252.914672851563"><!-- svg-source:excalidraw -->
	<metadata></metadata>
	<defs>
		<style class="style-fonts">
			@import "base.css";
		</style>
	</defs>

	<g stroke-linecap="round">
		<g transform="translate(52.8262939453125 21.113800048828125) rotate(0 0 288.98316955566406)">
			<path
				d="M0.69 -1 C0.97 196.84, -1.15 392.12, -0.4 578.68 M0.01 0.38 C-4.51 197.18, -4.95 396.02, -0.25 577.44"
				stroke="#1e1e1e" stroke-width="1"></path>
		</g>
	</g>

	<g stroke-linecap="round">
		<g transform="translate(19.66558837890625 572.5261840820312) rotate(0 450.5327274579555 0)">
			<path
				d="M0.61 0.4 C212.3 3.74, 427.24 5.22, 901.74 -1.57 M0.02 -0.67 C190.48 -3.09, 381.55 -3.93, 901.74 -0.28"
				stroke="#1e1e1e" stroke-width="1"></path>
		</g>
	</g>

	<g transform="translate(630.9815063476562 581.4573364257815) rotate(0 136.55593872070312 17.5)">
		<text x="273.11187744140625" y="24.668"
			 font-size="28px"
			fill="#1e1e1e" text-anchor="end" style="white-space: pre;"
			>Use case complexity</text>
	</g>
	<g
		transform="translate(-51.697967529296875 83.12554931640625) rotate(270 79.19796752929688 17.5)">
		<text x="158.39593505859375" y="24.668"
			 font-size="28px"
			fill="#1e1e1e" text-anchor="end" style="white-space: pre;"
			>User effort</text>
	</g>
	<g stroke-linecap="round"
		transform="translate(103.21771240234375 513.3357543945312) rotate(0 9.2408447265625 9.2408447265625)">
		<path
			d="M12.42 0.11 C14.24 0.62, 17.14 2.94, 18 4.8 C18.85 6.66, 18.22 9.26, 17.55 11.26 C16.88 13.25, 15.62 15.65, 13.98 16.78 C12.34 17.9, 9.48 18.12, 7.71 18.03 C5.93 17.94, 4.49 17.49, 3.32 16.23 C2.15 14.97, 1.05 12.66, 0.7 10.47 C0.35 8.29, 0.06 4.94, 1.24 3.14 C2.42 1.35, 5.69 -0.14, 7.77 -0.3 C9.85 -0.47, 12.31 1.64, 13.71 2.13 C15.11 2.63, 16.13 2.72, 16.18 2.67 M7 0.14 C8.77 -0.56, 10.61 -0.36, 12.19 0.56 C13.77 1.49, 15.26 3.81, 16.48 5.69 C17.7 7.56, 19.67 10.09, 19.52 11.81 C19.36 13.53, 17.11 14.69, 15.56 15.99 C14.01 17.29, 12.52 19.73, 10.23 19.61 C7.93 19.49, 3.59 16.81, 1.79 15.28 C0 13.75, -0.43 12.39, -0.56 10.44 C-0.68 8.49, -0.06 5.28, 1.03 3.57 C2.11 1.85, 5.07 0.74, 5.94 0.15 C6.81 -0.45, 6.09 -0.18, 6.23 0"
			stroke="none" stroke-width="0" fill="var(--color-green-dark)"></path>
		<path
			d="M5.36 1.11 C6.97 0.03, 8.39 -0.67, 10.31 -0.32 C12.24 0.03, 15.66 1.44, 16.91 3.22 C18.16 5.01, 18.01 8.51, 17.82 10.4 C17.63 12.28, 16.84 13.1, 15.77 14.54 C14.7 15.97, 13.16 18.51, 11.42 19.01 C9.68 19.51, 7.19 18.57, 5.32 17.55 C3.46 16.53, 1.09 14.89, 0.2 12.89 C-0.69 10.9, -1.04 7.71, 0 5.59 C1.05 3.46, 5.15 1, 6.44 0.13 C7.73 -0.73, 7.79 0.28, 7.75 0.4 M12.62 -0.18 C14.15 -0.21, 14.89 0.7, 16.07 2.53 C17.25 4.36, 19.62 8.79, 19.69 10.79 C19.75 12.78, 17.93 13.17, 16.46 14.52 C14.99 15.87, 12.8 18.35, 10.88 18.87 C8.97 19.4, 6.78 18.7, 4.96 17.65 C3.13 16.61, 0.84 14.51, -0.05 12.62 C-0.94 10.72, -1.46 8.13, -0.37 6.3 C0.72 4.46, 4.52 2.72, 6.5 1.6 C8.48 0.48, 10.78 -0.44, 11.49 -0.41 C12.2 -0.37, 10.56 1.78, 10.75 1.81"
			stroke="transparent" stroke-width="1"></path>
	</g>

	<g transform="translate(128.48669433593756 528.9280395507812) rotate(0 64.49945068359372 10)">
		<text x="0" y="14.096"
			font-size="16px" fill="#1e1e1e" style="white-space: pre;"
			 >&lt;video controls&gt;</text>
	</g>
	<g transform="translate(620.7561645507812 10) rotate(0 95.70286062615924 9.948310852050781)">
		<text x="191.40572125231856" y="14.023138977050781"

			font-size="15.91729736328125px" fill="#1e1e1e" text-anchor="end"
			style="white-space: pre;" >Custom video controls</text>
	</g>
	<g stroke-linecap="round">
		<g
			transform="translate(113.16385573297737 522.1908876720818) rotate(0 59.7974853515625 -4.379150390625)">
			<path
				d="M-0.63 0.47 C19.24 -0.95, 99.01 -7.94, 119.21 -9.55 M1.25 -0.32 C20.92 -1.52, 98.21 -7.13, 118.07 -8.42"
				stroke="#e03131" stroke-width="2"></path>
		</g>
	</g>

	<g stroke-linecap="round">
		<g
			transform="translate(233.17911452203975 512.8214418713005) rotate(0 0 -223.64755249023438)">
			<path
				d="M-0.38 -0.79 C-0.11 -75.48, 1.13 -373.47, 1.02 -447.71 M1.62 1.41 C1.88 -73.16, 0.66 -371.49, 0.61 -446.4"
				stroke="#e03131" stroke-width="2"></path>
		</g>
	</g>

	<g stroke-linecap="round">
		<g
			transform="translate(232.6787483111023 65.16745017208177) rotate(0 298.7851867675781 -16.69525146484375)">
			<path
				d="M1.02 -0.42 C100.5 -5.68, 496.97 -27.04, 596.52 -32.34 M0.09 -1.68 C99.97 -7.19, 499.04 -28.53, 598.68 -33.91"
				stroke="#e03131" stroke-width="2"></path>
		</g>
	</g>
	<g stroke-linecap="round"
		transform="translate(819.7962036132812 23.27593994140625) rotate(0 7.94970703125 7.94970703125)">
		<path
			d="M10.6 -0.39 C12.24 0.04, 13.28 1.53, 14.09 3.06 C14.9 4.59, 15.68 7.07, 15.47 8.8 C15.26 10.52, 13.91 12.12, 12.84 13.4 C11.78 14.69, 10.61 16.26, 9.1 16.52 C7.6 16.77, 5.39 16.17, 3.81 14.93 C2.23 13.69, 0 10.95, -0.38 9.09 C-0.75 7.22, 0.86 5.09, 1.58 3.74 C2.3 2.39, 2.2 1.51, 3.94 0.99 C5.67 0.48, 10.59 0.64, 11.99 0.63 C13.39 0.62, 12.6 0.84, 12.35 0.92 M7.15 -0.1 C8.5 -0.07, 10.27 1.3, 11.91 2.47 C13.54 3.64, 16.34 5.49, 16.95 6.93 C17.57 8.38, 16.38 9.55, 15.6 11.13 C14.82 12.72, 14.14 15.85, 12.25 16.44 C10.35 17.03, 6.19 15.41, 4.24 14.68 C2.3 13.95, 1.33 13.52, 0.58 12.08 C-0.18 10.65, -0.56 7.8, -0.3 6.08 C-0.03 4.36, 0.89 2.87, 2.18 1.75 C3.47 0.63, 6.52 -0.34, 7.44 -0.62 C8.37 -0.9, 7.8 -0.38, 7.74 0.07"
			stroke="none" stroke-width="0" fill="var(--color-green-dark)"></path>
		<path
			d="M7.18 -0.52 C8.78 -0.67, 12.17 0.25, 13.5 1.58 C14.83 2.92, 14.97 5.89, 15.13 7.48 C15.29 9.06, 15.06 9.67, 14.45 11.1 C13.85 12.53, 12.87 15.27, 11.49 16.06 C10.1 16.86, 7.93 16.43, 6.14 15.86 C4.36 15.29, 1.89 14.25, 0.78 12.65 C-0.34 11.06, -0.83 8.14, -0.53 6.3 C-0.23 4.46, 1.27 2.63, 2.58 1.61 C3.89 0.6, 6.47 0.51, 7.35 0.21 C8.24 -0.09, 7.65 -0.44, 7.9 -0.21 M9.85 -0.97 C11.46 -0.33, 14.94 3.14, 16.05 4.63 C17.15 6.13, 16.84 6.36, 16.49 7.99 C16.15 9.62, 15.21 12.96, 13.97 14.42 C12.73 15.88, 10.96 16.65, 9.05 16.76 C7.14 16.87, 4.23 16.15, 2.53 15.09 C0.84 14.03, -1.06 12.1, -1.12 10.38 C-1.18 8.66, 1.15 6.54, 2.17 4.77 C3.19 3.01, 3.74 0.28, 5 -0.23 C6.26 -0.73, 8.62 1.87, 9.75 1.76 C10.88 1.66, 11.66 -0.82, 11.78 -0.87"
			stroke="transparent" stroke-width="1"></path>
	</g>
	<g stroke-linecap="round">
		<g stroke-opacity="0.7" fill-opacity="0.7"
			transform="translate(371.6895515337585 287.7113954845818) rotate(0 -61.48126220703125 -0.341705322265625)">
			<path
				d="M-1.05 1.05 C-10.95 -0.3, -38.18 -9.8, -58.4 -8.52 C-78.63 -7.25, -111.81 5.9, -122.41 8.69 M0.6 0.56 C-9.49 -1.06, -38.38 -11.58, -58.96 -10.03 C-79.54 -8.49, -112.5 6.69, -122.88 9.85"
				stroke="#1e1e1e" stroke-width="2"></path>
		</g>
		<g stroke-opacity="0.7" fill-opacity="0.7"
			transform="translate(371.6895515337585 287.7113954845818) rotate(0 -61.48126220703125 -0.341705322265625)">
			<path
				d="M-103.85 -6.36 C-109.48 0.96, -116.62 6.87, -122.88 9.85 M-103.85 -6.36 C-109.15 -2.35, -114.37 1.42, -122.88 9.85"
				stroke="#1e1e1e" stroke-width="2"></path>
		</g>
		<g stroke-opacity="0.7" fill-opacity="0.7"
			transform="translate(371.6895515337585 287.7113954845818) rotate(0 -61.48126220703125 -0.341705322265625)">
			<path
				d="M-97.88 9.67 C-105.76 10.77, -115.19 10.51, -122.88 9.85 M-97.88 9.67 C-104.95 9.25, -111.8 8.62, -122.88 9.85"
				stroke="#1e1e1e" stroke-width="2"></path>
		</g>
	</g>

	<g stroke-opacity="0.7" fill-opacity="0.7"
		transform="translate(383.642798604071 280.2715761486443) rotate(0 43.0371000574529 17.5)">
		<text x="0" y="24.668"
			font-size="28px" fill="#1e1e1e">Cliff</text>
	</g>
	<g stroke-linecap="round">
		<g
			transform="translate(112.58882708661258 525.2755432128909) rotate(0 358.0078125 -245.619140625)">
			<path
				d="M-2.14 -1 C59.52 -13.63, 248.42 3.95, 368.13 -77.86 C487.85 -159.67, 658.29 -422.76, 716.14 -491.86 M1.9 -4.01 C63.44 -17.35, 247.7 -1.61, 366.45 -82.46 C485.2 -163.31, 656.25 -421.08, 714.39 -489.09"
				stroke="#2f9e44" stroke-width="2"></path>
		</g>
	</g>

	<g transform="translate(569.353078795597 380.92398071289085) rotate(0 73.00996398925781 17.5)">
		<text x="0" y="24" font-size="28px">&lt;my-video&gt;</text>
		<text x="0" y="48">component w/ slots</text>
	</g>
</svg>
