<?xml version="1.0" encoding="UTF-8"?>
<svg xmlns="http://www.w3.org/2000/svg" version="1.2">
	<title>Photo</title>
  	<path fill-rule="evenodd" clip-rule="evenodd" fill="white" d="M319.206,139.624v-2.817h-4.631v2.817H319.206z M336.778,140.748
	c0-0.844-0.685-1.53-1.529-1.53c-0.844,0-1.529,0.686-1.529,1.53c0,0.844,0.685,1.53,1.529,1.53
	C336.093,142.278,336.778,141.592,336.778,140.748z M319.373,147.557c0-2.553,2.072-4.625,4.626-4.625
	c2.553,0,4.625,2.072,4.625,4.625c0,2.554-2.072,4.626-4.625,4.626C321.445,152.183,319.373,150.11,319.373,147.557z
	 M330.57,147.557c0-3.627-2.944-6.571-6.571-6.571s-6.571,2.944-6.571,6.571s2.944,6.571,6.571,6.571S330.57,151.184,330.57,147.557
	z M309.686,155.218v-16.17c0-0.827,0.672-1.499,1.5-1.499h1.671v-1.426c0-0.585,0.475-1.06,1.06-1.06h6.015
	c0.585,0,1.06,0.475,1.06,1.06v1.426h15.821c0.828,0,1.5,0.672,1.5,1.499v16.17c0,0.827-0.672,1.499-1.5,1.499h-25.627
	C310.358,156.717,309.686,156.044,309.686,155.218z" transform="scale(0.6) translate(-298, -128)"/>
</svg>