<svg version="1.1" xmlns="http://www.w3.org/2000/svg" viewBox="0 0 820 600">
<defs>
	<style>
		.construction-lines {
			opacity: .6;
		}

		.construction-lines,
		.construction-lines path {
			stroke-linecap: round;
			stroke: oklch(64.28% 0.0152 248.1);
			mix-blend-mode: multiply;
			stroke-width: 2;
			fill: none;
		}
	</style>
</defs>
	<use href="/logo.svg" width="448" height="448" x="182" y="80" />
	<g class="construction-lines">
	<path
		id="circle1"
		transform="translate(421 110)"
		d="M30.36 0.84 C35.17 1.63, 40.44 5.75, 43.56 9.87 C46.68 13.99, 49.4 20.32, 49.07 25.55 C48.74 30.79, 45.28 37.4, 41.57 41.28 C37.87 45.16, 31.94 48.33, 26.84 48.85 C21.73 49.37, 15.21 47.37, 10.95 44.39 C6.69 41.42, 2.66 35.99, 1.25 31 C-0.16 26.01, 0.38 19.23, 2.47 14.44 C4.56 9.64, 9.14 4.51, 13.8 2.21 C18.46 -0.08, 27.49 0.85, 30.43 0.67 C33.37 0.48, 31.4 0.69, 31.41 1.09 M26.44 -0.11 C31.45 0.18, 38 4.1, 41.8 7.89 C45.6 11.67, 48.73 17.4, 49.23 22.61 C49.73 27.82, 47.97 34.94, 44.8 39.15 C41.63 43.37, 35.45 46.67, 30.2 47.89 C24.95 49.11, 18.09 48.67, 13.29 46.5 C8.5 44.32, 3.5 39.73, 1.43 34.85 C-0.63 29.97, -0.64 22.28, 0.9 17.2 C2.43 12.12, 6.36 7.13, 10.66 4.37 C14.96 1.62, 24 1.32, 26.69 0.67 C29.38 0.03, 26.91 0.24, 26.81 0.48"
	/>

	<path
		id="circle2"
		transform="translate(502 148)"
		d="M29.41 0.53 C34.35 1.26, 41.08 5.11, 44.23 9.31 C47.38 13.51, 48.68 20.4, 48.31 25.73 C47.94 31.05, 45.47 37.5, 42 41.27 C38.52 45.04, 32.55 47.77, 27.44 48.33 C22.33 48.88, 15.68 47.44, 11.35 44.61 C7.02 41.79, 2.99 36.37, 1.46 31.36 C-0.07 26.34, 0.23 19.34, 2.15 14.52 C4.06 9.7, 8.1 4.77, 12.96 2.44 C17.82 0.11, 28.03 0.68, 31.3 0.55 C34.58 0.42, 32.7 1.24, 32.6 1.67 M23.37 0.55 C28.46 0.09, 35.58 1.94, 39.82 5.14 C44.07 8.33, 47.83 14.65, 48.83 19.73 C49.82 24.8, 48.39 31.03, 45.77 35.59 C43.15 40.15, 38.05 45.01, 33.13 47.08 C28.2 49.16, 21.14 49.76, 16.25 48.05 C11.35 46.34, 6.43 41.3, 3.76 36.83 C1.09 32.37, -0.45 26.24, 0.24 21.25 C0.92 16.27, 3.98 10.46, 7.85 6.91 C11.72 3.35, 20.94 1.03, 23.45 -0.1 C25.96 -1.24, 22.99 -0.21, 22.93 0.1"
	/>

	<path
		id="line1"
		stroke-opacity="0.7"
		transform="translate(380.5 66)"
		d="M0 0 C0.5 185.79, -0.71 370.87, 0 468.44 M0 0 C-1.8 172.98, -1.63 346.43, 0 468.44"
	/>

	<path
		id="line2"
		transform="translate(431.5 63)"
		d="M0 0 C-0.16 184.67, 1.35 368.94, 0 472.35 M0 0 C0.31 101.27, -0.13 202.58, 0 472.35"
	/>

	<path
		id="circle3"
		transform="translate(256 224)"
		d="M15.18 2.89 C20.18 0.21, 28.38 -0.96, 34.07 0.41 C39.77 1.78, 45.98 6.36, 49.35 11.12 C52.71 15.89, 54.81 23.32, 54.25 29 C53.69 34.68, 50.34 41.2, 45.99 45.21 C41.65 49.22, 33.93 52.64, 28.18 53.07 C22.43 53.5, 15.95 51.09, 11.5 47.79 C7.04 44.48, 2.88 38.7, 1.46 33.23 C0.04 27.75, -0.18 20.44, 2.97 14.94 C6.12 9.45, 16.61 2.66, 20.34 0.25 C24.08 -2.15, 25.12 -0.13, 25.37 0.51 M27.23 -0.24 C32.31 -0.54, 39.51 3.09, 43.61 7.1 C47.71 11.11, 50.84 18.4, 51.83 23.84 C52.81 29.27, 52.27 34.96, 49.49 39.73 C46.71 44.51, 40.64 50.32, 35.15 52.49 C29.66 54.65, 21.88 54.96, 16.57 52.74 C11.25 50.52, 6.09 44.54, 3.26 39.16 C0.42 33.78, -1.45 26.28, -0.42 20.46 C0.61 14.65, 4.89 7.46, 9.42 4.27 C13.94 1.09, 23.58 1.82, 26.73 1.34 C29.88 0.85, 28.09 1.08, 28.31 1.38"
	/>

	<path
		id="line3"
		transform="translate(513 110)"
		d="M0 0 C-69.35 -1.64, -136.52 -1, -242.8 0 M0 0 C-78.75 1.78, -157.03 1.43, -242.8 0"
	/>

	<path
		id="line4"
		transform="translate(527 323)"
		d="M0 0 C-53.48 0.84, -105.26 -0.78, -247.04 0 M0 0 C-87.99 1.96, -176.05 1, -247.04 0"
	/>

	<path
		id="line5"
		stroke-opacity="0.7"
		transform="translate(405 535)"
		d="M0 0 C1.06 -144.45, 1.35 -288.31, 0 -471.44 M0 0 C0.26 -179.94, 0.35 -359.09, 0 -471.44"
	/>

	<path
		id="line6"
		transform="translate(534 84)"
		d="M0 0 C-74.69 -1.74, -149.9 -1.46, -219.57 0 M0 0 C-74.67 -1.32, -149.38 -0.99, -219.57 0"
	/>

	<path
		id="line7"
		transform="translate(514 350)"
		d="M0 0 C-49.44 -1.21, -101.07 -1.83, -206.78 0 M0 0 C-46.59 0.88, -91.98 0.72, -206.78 0"
	/>

	<path
		id="line8"
		transform="translate(641 501)"
		d="M0 0 C-106.68 -23.42, -214.65 -45.44, -412.53 -85.93 M0 0 C-131.72 -25.99, -263.67 -53.77, -412.53 -85.93"
	/>

	<path
		id="line9"
		transform="translate(176 501)"
		d="M0 0 C101.44 -20.72, 205.17 -42.85, 373.15 -78.58 M0 0 C133.65 -29.14, 267.32 -57.39, 373.15 -78.58"
	/>
	<path id="line10" d="M 550,211 c-69.35,-1.64,-136.52,-1,-292.8,0"/>

	<path
		id="circle4"
		transform="translate(343 274)"
		d="M28.28 0.01 C33.26 0.58, 39.82 4.97, 43.16 8.98 C46.51 13, 48.33 18.97, 48.34 24.1 C48.36 29.22, 46.46 35.76, 43.25 39.75 C40.03 43.74, 34.15 47.13, 29.04 48.03 C23.94 48.93, 17.27 47.67, 12.61 45.14 C7.95 42.61, 2.94 37.73, 1.08 32.85 C-0.79 27.97, -0.37 20.73, 1.43 15.86 C3.22 10.99, 7.15 6.14, 11.85 3.63 C16.54 1.12, 26.68 1.27, 29.61 0.82 C32.55 0.36, 29.51 0.52, 29.44 0.9 M24.62 -0.13 C29.62 -0.66, 36.31 1.81, 40.23 5.23 C44.16 8.66, 47.16 15.28, 48.19 20.41 C49.23 25.54, 49.04 31.54, 46.43 36.02 C43.82 40.5, 37.6 45.38, 32.54 47.28 C27.48 49.19, 20.86 49.12, 16.07 47.43 C11.29 45.73, 6.5 41.63, 3.83 37.12 C1.16 32.61, -0.67 25.51, 0.04 20.37 C0.74 15.23, 3.98 9.71, 8.07 6.28 C12.17 2.84, 21.92 0.72, 24.59 -0.25 C27.25 -1.22, 24.24 -0.11, 24.06 0.46"
	/>
	</g>
</svg>
