<?xml version="1.0" encoding="utf-8"?>
<!-- Generator: Adobe Illustrator 28.0.0, SVG Export Plug-In . SVG Version: 6.00 Build 0)  -->
<svg version="1.1" id="Layer_1" xmlns="http://www.w3.org/2000/svg" xmlns:xlink="http://www.w3.org/1999/xlink" x="0px" y="0px"
	 viewBox="0 0 1171.1 158.6" style="enable-background:new 0 0 1171.1 158.6;" xml:space="preserve">
<style type="text/css">
	.st0{fill:url(#SVGID_1_);}
	.st1{fill:#FFFFFF;}
	.st2{fill:none;stroke:#9BA8B2;stroke-width:3;stroke-linecap:round;stroke-linejoin:round;stroke-miterlimit:10;}
	.st3{fill:#6E777F;}
</style>
<g>
	
		<linearGradient id="SVGID_1_" gradientUnits="userSpaceOnUse" x1="8.171" y1="768.5558" x2="1162.6709" y2="768.5558" gradientTransform="matrix(-1 0 0 -1 1171.3419 805.1116)">
		<stop  offset="5.346777e-02" style="stop-color:#337F38"/>
		<stop  offset="0.2031" style="stop-color:#6FA553"/>
		<stop  offset="0.5" style="stop-color:#E5B400"/>
		<stop  offset="0.8024" style="stop-color:#B23636"/>
		<stop  offset="0.9439" style="stop-color:#910000"/>
	</linearGradient>
	<path class="st0" d="M16.5,9.1h1138.8c4.3,0,7.9,3.5,7.9,7.9v39.3c0,4.3-3.5,7.9-7.9,7.9H16.5c-4.3,0-7.9-3.5-7.9-7.9V16.9
		C8.7,12.6,12.2,9.1,16.5,9.1z"/>
</g>
<g>
	<g>
		<path class="st1" d="M976.1,44.6V27.8h11.3v2.9h-7.7v4h7.2v2.9h-7.2v4h7.8v2.9H976.1z"/>
		<path class="st1" d="M991.9,30.4c-0.5,0-1-0.2-1.3-0.5c-0.4-0.3-0.6-0.8-0.6-1.2c0-0.5,0.2-0.9,0.6-1.2s0.8-0.5,1.3-0.5
			c0.5,0,1,0.2,1.3,0.5c0.4,0.3,0.6,0.8,0.6,1.2c0,0.5-0.2,0.9-0.6,1.2S992.4,30.4,991.9,30.4z M990.1,44.6V32h3.5v12.5H990.1z"/>
		<path class="st1" d="M1002,49.5c-1.1,0-2.1-0.2-2.9-0.5c-0.8-0.3-1.4-0.7-1.9-1.3c-0.5-0.5-0.8-1.1-0.9-1.8l3.2-0.4
			c0.1,0.3,0.3,0.5,0.5,0.7c0.2,0.2,0.5,0.4,0.8,0.5c0.4,0.1,0.8,0.2,1.3,0.2c0.8,0,1.4-0.2,1.9-0.6c0.5-0.4,0.7-1,0.7-1.8v-2.3
			h-0.1c-0.2,0.3-0.4,0.7-0.7,1c-0.3,0.3-0.7,0.6-1.2,0.8c-0.5,0.2-1.1,0.3-1.7,0.3c-0.9,0-1.8-0.2-2.6-0.7c-0.8-0.4-1.4-1.1-1.8-2
			c-0.5-0.9-0.7-2.1-0.7-3.4c0-1.4,0.2-2.6,0.7-3.6c0.5-1,1.1-1.7,1.9-2.1c0.8-0.5,1.6-0.7,2.5-0.7c0.7,0,1.3,0.1,1.8,0.4
			s0.9,0.5,1.1,0.9c0.3,0.4,0.5,0.7,0.7,1h0.1V32h3.5v12.7c0,1.1-0.3,2-0.8,2.7s-1.2,1.3-2.2,1.6C1004.3,49.4,1003.2,49.5,1002,49.5
			z M1002.1,41.8c0.6,0,1-0.1,1.4-0.4c0.4-0.3,0.7-0.7,0.9-1.2c0.2-0.5,0.3-1.2,0.3-1.9c0-0.7-0.1-1.4-0.3-1.9
			c-0.2-0.5-0.5-1-0.9-1.3c-0.4-0.3-0.9-0.4-1.4-0.4c-0.6,0-1.1,0.2-1.4,0.5c-0.4,0.3-0.7,0.7-0.9,1.3s-0.3,1.2-0.3,1.9
			c0,0.7,0.1,1.3,0.3,1.9s0.5,0.9,0.9,1.2C1001,41.6,1001.5,41.8,1002.1,41.8z"/>
		<path class="st1" d="M1016.7,44.8c-1.3,0-2.4-0.3-3.3-0.8s-1.6-1.3-2.1-2.2c-0.5-1-0.8-2.1-0.8-3.4c0-1.3,0.2-2.4,0.8-3.4
			s1.2-1.7,2.1-2.3s2-0.8,3.2-0.8c0.8,0,1.6,0.1,2.3,0.4s1.3,0.7,1.9,1.2c0.5,0.5,1,1.2,1.3,2c0.3,0.8,0.4,1.7,0.4,2.8v1h-10.6V37
			h7.3c0-0.5-0.1-0.9-0.3-1.3c-0.2-0.4-0.5-0.7-0.9-0.9s-0.8-0.3-1.3-0.3c-0.5,0-1,0.1-1.4,0.4s-0.7,0.6-1,1
			c-0.2,0.4-0.3,0.9-0.4,1.4v2c0,0.6,0.1,1.2,0.3,1.6c0.2,0.5,0.6,0.8,1,1s0.9,0.4,1.5,0.4c0.4,0,0.7-0.1,1.1-0.2s0.6-0.3,0.8-0.5
			c0.2-0.2,0.4-0.5,0.5-0.8l3.2,0.2c-0.2,0.8-0.5,1.4-1,2c-0.5,0.6-1.2,1-1.9,1.3C1018.6,44.7,1017.7,44.8,1016.7,44.8z"/>
		<path class="st1" d="M1028.2,37.3v7.3h-3.5V32h3.3v2.2h0.1c0.3-0.7,0.7-1.3,1.4-1.7c0.7-0.4,1.4-0.6,2.4-0.6
			c0.9,0,1.6,0.2,2.3,0.6c0.6,0.4,1.2,0.9,1.5,1.6c0.4,0.7,0.5,1.5,0.5,2.5v8h-3.5v-7.4c0-0.8-0.2-1.4-0.6-1.8
			c-0.4-0.4-0.9-0.6-1.6-0.6c-0.5,0-0.9,0.1-1.2,0.3c-0.4,0.2-0.6,0.5-0.8,0.9C1028.3,36.3,1028.2,36.8,1028.2,37.3z"/>
		<path class="st1" d="M1049.4,35.6l-3.2,0.2c-0.1-0.3-0.2-0.5-0.4-0.7s-0.4-0.4-0.7-0.5s-0.6-0.2-1-0.2c-0.5,0-1,0.1-1.4,0.3
			c-0.4,0.2-0.6,0.5-0.6,0.9c0,0.3,0.1,0.6,0.4,0.8c0.2,0.2,0.7,0.4,1.2,0.5l2.3,0.5c1.2,0.3,2.1,0.7,2.7,1.2
			c0.6,0.6,0.9,1.3,0.9,2.2c0,0.8-0.2,1.5-0.7,2.2c-0.5,0.6-1.1,1.1-2,1.4s-1.8,0.5-2.9,0.5c-1.7,0-3-0.3-4-1
			c-1-0.7-1.6-1.6-1.7-2.8l3.4-0.2c0.1,0.5,0.4,0.9,0.8,1.2c0.4,0.3,0.9,0.4,1.5,0.4c0.6,0,1.1-0.1,1.5-0.4s0.6-0.5,0.6-0.9
			c0-0.3-0.1-0.6-0.4-0.8c-0.3-0.2-0.7-0.4-1.2-0.5l-2.2-0.4c-1.2-0.2-2.1-0.7-2.7-1.3c-0.6-0.6-0.9-1.4-0.9-2.3
			c0-0.8,0.2-1.5,0.7-2.1c0.4-0.6,1.1-1,1.9-1.3c0.8-0.3,1.7-0.5,2.8-0.5c1.6,0,2.8,0.3,3.7,1C1048.7,33.5,1049.3,34.4,1049.4,35.6z
			"/>
		<path class="st1" d="M1057.6,44.8c-1.3,0-2.4-0.3-3.3-0.8c-0.9-0.5-1.6-1.3-2.1-2.3c-0.5-1-0.8-2.1-0.8-3.4c0-1.3,0.2-2.4,0.8-3.4
			c0.5-1,1.2-1.7,2.1-2.3c0.9-0.5,2-0.8,3.3-0.8c1.3,0,2.4,0.3,3.3,0.8c0.9,0.5,1.6,1.3,2.1,2.3c0.5,1,0.8,2.1,0.8,3.4
			c0,1.3-0.2,2.4-0.8,3.4c-0.5,1-1.2,1.7-2.1,2.3C1059.9,44.5,1058.8,44.8,1057.6,44.8z M1057.6,42.1c0.6,0,1.1-0.2,1.4-0.5
			c0.4-0.3,0.7-0.8,0.9-1.4c0.2-0.6,0.3-1.2,0.3-2c0-0.7-0.1-1.4-0.3-2c-0.2-0.6-0.5-1-0.9-1.4c-0.4-0.3-0.9-0.5-1.4-0.5
			c-0.6,0-1.1,0.2-1.5,0.5s-0.7,0.8-0.9,1.4c-0.2,0.6-0.3,1.2-0.3,2c0,0.7,0.1,1.4,0.3,2c0.2,0.6,0.5,1,0.9,1.4
			S1057,42.1,1057.6,42.1z"/>
		<path class="st1" d="M1069.5,27.8v16.7h-3.5V27.8H1069.5z"/>
		<path class="st1" d="M1080.3,39.2V32h3.5v12.5h-3.3v-2.3h-0.1c-0.3,0.7-0.8,1.3-1.4,1.8s-1.5,0.7-2.4,0.7c-0.8,0-1.6-0.2-2.2-0.6
			c-0.6-0.4-1.1-0.9-1.5-1.6c-0.4-0.7-0.5-1.5-0.5-2.5v-8h3.5v7.4c0,0.7,0.2,1.3,0.6,1.8s0.9,0.6,1.6,0.6c0.4,0,0.8-0.1,1.2-0.3
			c0.4-0.2,0.7-0.5,0.9-0.9C1080.2,40.3,1080.3,39.8,1080.3,39.2z"/>
		<path class="st1" d="M1093.2,32v2.6h-7.6V32H1093.2z M1087.4,29h3.5v11.7c0,0.3,0,0.6,0.1,0.7c0.1,0.2,0.2,0.3,0.4,0.4
			c0.2,0.1,0.4,0.1,0.6,0.1c0.2,0,0.3,0,0.5,0c0.2,0,0.3-0.1,0.4-0.1l0.5,2.6c-0.2,0.1-0.4,0.1-0.7,0.2c-0.3,0.1-0.7,0.1-1.2,0.1
			c-0.8,0-1.6-0.1-2.2-0.3s-1.1-0.7-1.5-1.2s-0.5-1.2-0.5-2V29z"/>
		<path class="st1" d="M1097.3,30.4c-0.5,0-1-0.2-1.3-0.5c-0.4-0.3-0.6-0.8-0.6-1.2c0-0.5,0.2-0.9,0.6-1.2c0.4-0.3,0.8-0.5,1.3-0.5
			c0.5,0,1,0.2,1.3,0.5c0.4,0.3,0.6,0.8,0.6,1.2c0,0.5-0.2,0.9-0.6,1.2C1098.2,30.2,1097.8,30.4,1097.3,30.4z M1095.5,44.6V32h3.5
			v12.5H1095.5z"/>
		<path class="st1" d="M1107.4,44.8c-1.3,0-2.4-0.3-3.3-0.8c-0.9-0.5-1.6-1.3-2.1-2.3c-0.5-1-0.8-2.1-0.8-3.4c0-1.3,0.2-2.4,0.8-3.4
			c0.5-1,1.2-1.7,2.1-2.3c0.9-0.5,2-0.8,3.3-0.8s2.4,0.3,3.3,0.8c0.9,0.5,1.6,1.3,2.1,2.3c0.5,1,0.8,2.1,0.8,3.4
			c0,1.3-0.3,2.4-0.8,3.4c-0.5,1-1.2,1.7-2.1,2.3C1109.8,44.5,1108.7,44.8,1107.4,44.8z M1107.4,42.1c0.6,0,1.1-0.2,1.4-0.5
			s0.7-0.8,0.9-1.4c0.2-0.6,0.3-1.2,0.3-2c0-0.7-0.1-1.4-0.3-2c-0.2-0.6-0.5-1-0.9-1.4s-0.9-0.5-1.4-0.5c-0.6,0-1.1,0.2-1.5,0.5
			c-0.4,0.3-0.7,0.8-0.9,1.4c-0.2,0.6-0.3,1.2-0.3,2c0,0.7,0.1,1.4,0.3,2c0.2,0.6,0.5,1,0.9,1.4C1106.4,42,1106.9,42.1,1107.4,42.1z
			"/>
		<path class="st1" d="M1119.4,37.3v7.3h-3.5V32h3.3v2.2h0.1c0.3-0.7,0.7-1.3,1.4-1.7c0.7-0.4,1.4-0.6,2.4-0.6
			c0.9,0,1.6,0.2,2.3,0.6c0.6,0.4,1.2,0.9,1.5,1.6c0.4,0.7,0.5,1.5,0.5,2.5v8h-3.5v-7.4c0-0.8-0.2-1.4-0.6-1.8
			c-0.4-0.4-0.9-0.6-1.6-0.6c-0.5,0-0.9,0.1-1.2,0.3c-0.4,0.2-0.6,0.5-0.8,0.9C1119.5,36.3,1119.4,36.8,1119.4,37.3z"/>
		<path class="st1" d="M1140.6,35.6l-3.2,0.2c-0.1-0.3-0.2-0.5-0.4-0.7s-0.4-0.4-0.7-0.5c-0.3-0.1-0.6-0.2-1-0.2
			c-0.5,0-1,0.1-1.4,0.3c-0.4,0.2-0.6,0.5-0.6,0.9c0,0.3,0.1,0.6,0.4,0.8c0.2,0.2,0.7,0.4,1.2,0.5l2.3,0.5c1.2,0.3,2.1,0.7,2.7,1.2
			c0.6,0.6,0.9,1.3,0.9,2.2c0,0.8-0.2,1.5-0.7,2.2c-0.5,0.6-1.1,1.1-2,1.4s-1.8,0.5-2.9,0.5c-1.7,0-3-0.3-4-1
			c-1-0.7-1.6-1.6-1.7-2.8l3.4-0.2c0.1,0.5,0.4,0.9,0.8,1.2c0.4,0.3,0.9,0.4,1.5,0.4c0.6,0,1.1-0.1,1.5-0.4s0.6-0.5,0.6-0.9
			c0-0.3-0.1-0.6-0.4-0.8c-0.3-0.2-0.7-0.4-1.2-0.5l-2.2-0.4c-1.2-0.2-2.1-0.7-2.7-1.3c-0.6-0.6-0.9-1.4-0.9-2.3
			c0-0.8,0.2-1.5,0.7-2.1c0.4-0.6,1.1-1,1.9-1.3c0.8-0.3,1.7-0.5,2.8-0.5c1.6,0,2.8,0.3,3.7,1C1139.9,33.5,1140.5,34.4,1140.6,35.6z
			"/>
	</g>
</g>
<g>
	<g>
		<path class="st1" d="M42.5,36.2c0,1.8-0.3,3.4-1,4.7s-1.6,2.3-2.8,2.9c-1.2,0.7-2.5,1-4,1c-1.5,0-2.8-0.3-4-1
			c-1.2-0.7-2.1-1.7-2.8-2.9c-0.7-1.3-1-2.8-1-4.6c0-1.8,0.3-3.4,1-4.7c0.7-1.3,1.6-2.3,2.8-2.9s2.5-1,4-1c1.5,0,2.8,0.3,4,1
			s2.1,1.6,2.8,2.9C42.2,32.8,42.5,34.4,42.5,36.2z M38.9,36.2c0-1.2-0.2-2.2-0.5-3c-0.4-0.8-0.8-1.4-1.5-1.8s-1.4-0.6-2.2-0.6
			c-0.9,0-1.6,0.2-2.2,0.6c-0.6,0.4-1.1,1-1.5,1.8c-0.4,0.8-0.5,1.8-0.5,3c0,1.2,0.2,2.2,0.5,3c0.4,0.8,0.8,1.4,1.5,1.8
			c0.6,0.4,1.4,0.6,2.2,0.6c0.9,0,1.6-0.2,2.2-0.6s1.1-1,1.5-1.8C38.7,38.4,38.9,37.4,38.9,36.2z"/>
		<path class="st1" d="M56.7,32l-4.4,12.5h-3.9L44,32h3.7l2.6,9h0.1l2.6-9H56.7z"/>
		<path class="st1" d="M64.2,44.8c-1.3,0-2.4-0.3-3.3-0.8c-0.9-0.5-1.6-1.3-2.1-2.2c-0.5-1-0.8-2.1-0.8-3.4c0-1.3,0.2-2.4,0.8-3.4
			s1.2-1.7,2.1-2.3s2-0.8,3.2-0.8c0.8,0,1.6,0.1,2.3,0.4c0.7,0.3,1.3,0.7,1.9,1.2c0.5,0.5,1,1.2,1.3,2c0.3,0.8,0.4,1.7,0.4,2.8v1
			H59.4V37h7.3c0-0.5-0.1-0.9-0.3-1.3c-0.2-0.4-0.5-0.7-0.9-0.9c-0.4-0.2-0.8-0.3-1.3-0.3c-0.5,0-1,0.1-1.4,0.4
			c-0.4,0.2-0.7,0.6-1,1c-0.2,0.4-0.3,0.9-0.4,1.4v2c0,0.6,0.1,1.2,0.3,1.6c0.2,0.5,0.6,0.8,1,1s0.9,0.4,1.5,0.4
			c0.4,0,0.7-0.1,1.1-0.2s0.6-0.3,0.8-0.5c0.2-0.2,0.4-0.5,0.5-0.8l3.2,0.2c-0.2,0.8-0.5,1.4-1,2c-0.5,0.6-1.2,1-1.9,1.3
			C66.2,44.7,65.3,44.8,64.2,44.8z"/>
		<path class="st1" d="M72.3,44.6V32h3.4v2.2h0.1c0.2-0.8,0.6-1.4,1.2-1.8c0.5-0.4,1.2-0.6,1.9-0.6c0.2,0,0.4,0,0.6,0
			s0.4,0.1,0.5,0.1v3.1c-0.2,0-0.4-0.1-0.7-0.1s-0.6-0.1-0.8-0.1c-0.5,0-1,0.1-1.4,0.3c-0.4,0.2-0.7,0.5-0.9,0.9s-0.3,0.8-0.3,1.4
			v7.1H72.3z"/>
		<path class="st1" d="M88.4,32v2.6h-7.7V32H88.4z M82.4,44.6V31.1c0-0.9,0.2-1.7,0.5-2.3c0.4-0.6,0.8-1,1.5-1.3s1.3-0.4,2.1-0.4
			c0.5,0,1,0,1.5,0.1c0.4,0.1,0.8,0.2,1,0.2L88.4,30c-0.1,0-0.3-0.1-0.5-0.1s-0.4-0.1-0.6-0.1c-0.5,0-0.9,0.1-1.1,0.4
			c-0.2,0.2-0.3,0.6-0.3,1v13.4H82.4z"/>
		<path class="st1" d="M92.3,30.4c-0.5,0-1-0.2-1.3-0.5c-0.4-0.3-0.6-0.8-0.6-1.2c0-0.5,0.2-0.9,0.6-1.2c0.4-0.3,0.8-0.5,1.3-0.5
			c0.5,0,1,0.2,1.3,0.5c0.4,0.3,0.6,0.8,0.6,1.2c0,0.5-0.2,0.9-0.6,1.2C93.2,30.2,92.8,30.4,92.3,30.4z M90.5,44.6V32H94v12.5H90.5z
			"/>
		<path class="st1" d="M103.5,32v2.6h-7.6V32H103.5z M97.6,29h3.5v11.7c0,0.3,0,0.6,0.1,0.7c0.1,0.2,0.2,0.3,0.4,0.4
			c0.2,0.1,0.4,0.1,0.6,0.1c0.2,0,0.3,0,0.5,0s0.3-0.1,0.4-0.1l0.5,2.6c-0.2,0.1-0.4,0.1-0.7,0.2c-0.3,0.1-0.7,0.1-1.2,0.1
			c-0.8,0-1.6-0.1-2.2-0.3s-1.1-0.7-1.5-1.2c-0.3-0.5-0.5-1.2-0.5-2V29z"/>
		<path class="st1" d="M112.4,32v2.6h-7.6V32H112.4z M106.6,29h3.5v11.7c0,0.3,0,0.6,0.1,0.7c0.1,0.2,0.2,0.3,0.4,0.4
			c0.2,0.1,0.4,0.1,0.6,0.1c0.2,0,0.3,0,0.5,0s0.3-0.1,0.4-0.1l0.5,2.6c-0.2,0.1-0.4,0.1-0.7,0.2c-0.3,0.1-0.7,0.1-1.2,0.1
			c-0.8,0-1.6-0.1-2.2-0.3s-1.1-0.7-1.5-1.2c-0.3-0.5-0.5-1.2-0.5-2V29z"/>
		<path class="st1" d="M116.4,30.4c-0.5,0-1-0.2-1.3-0.5c-0.4-0.3-0.6-0.8-0.6-1.2c0-0.5,0.2-0.9,0.6-1.2c0.4-0.3,0.8-0.5,1.3-0.5
			c0.5,0,1,0.2,1.3,0.5c0.4,0.3,0.6,0.8,0.6,1.2c0,0.5-0.2,0.9-0.6,1.2C117.4,30.2,116.9,30.4,116.4,30.4z M114.7,44.6V32h3.5v12.5
			H114.7z"/>
		<path class="st1" d="M124.4,37.3v7.3h-3.5V32h3.3v2.2h0.1c0.3-0.7,0.7-1.3,1.4-1.7c0.7-0.4,1.4-0.6,2.4-0.6c0.9,0,1.6,0.2,2.3,0.6
			c0.6,0.4,1.2,0.9,1.5,1.6c0.4,0.7,0.5,1.5,0.5,2.5v8H129v-7.4c0-0.8-0.2-1.4-0.6-1.8c-0.4-0.4-0.9-0.6-1.6-0.6
			c-0.5,0-0.9,0.1-1.2,0.3c-0.4,0.2-0.6,0.5-0.8,0.9S124.4,36.8,124.4,37.3z"/>
		<path class="st1" d="M140.9,49.5c-1.1,0-2.1-0.2-2.9-0.5s-1.4-0.7-1.9-1.3c-0.5-0.5-0.8-1.1-0.9-1.8l3.2-0.4
			c0.1,0.3,0.3,0.5,0.5,0.7s0.5,0.4,0.8,0.5C140,47,140.4,47,141,47c0.8,0,1.4-0.2,1.9-0.6c0.5-0.4,0.7-1,0.7-1.8v-2.3h-0.1
			c-0.2,0.3-0.4,0.7-0.7,1c-0.3,0.3-0.7,0.6-1.2,0.8c-0.5,0.2-1.1,0.3-1.7,0.3c-0.9,0-1.8-0.2-2.6-0.7c-0.8-0.4-1.4-1.1-1.8-2
			s-0.7-2.1-0.7-3.4c0-1.4,0.2-2.6,0.7-3.6c0.5-1,1.1-1.7,1.9-2.1c0.8-0.5,1.6-0.7,2.5-0.7c0.7,0,1.3,0.1,1.8,0.4
			c0.5,0.2,0.9,0.5,1.1,0.9c0.3,0.4,0.5,0.7,0.7,1h0.1V32h3.5v12.7c0,1.1-0.3,2-0.8,2.7c-0.5,0.7-1.2,1.3-2.2,1.6
			C143.1,49.4,142.1,49.5,140.9,49.5z M140.9,41.8c0.6,0,1-0.1,1.4-0.4c0.4-0.3,0.7-0.7,0.9-1.2c0.2-0.5,0.3-1.2,0.3-1.9
			c0-0.7-0.1-1.4-0.3-1.9c-0.2-0.5-0.5-1-0.9-1.3s-0.9-0.4-1.4-0.4c-0.6,0-1.1,0.2-1.4,0.5s-0.7,0.7-0.9,1.3
			c-0.2,0.5-0.3,1.2-0.3,1.9c0,0.7,0.1,1.3,0.3,1.9s0.5,0.9,0.9,1.2C139.9,41.6,140.4,41.8,140.9,41.8z"/>
	</g>
</g>
<polyline class="st2" points="1163.2,99.1 1163.2,113.1 586.2,113.1 586.2,99.1 "/>
<g>
	<g>
		<path class="st3" d="M833.7,132.3c-0.2-0.5-0.4-0.9-0.6-1.3c-0.3-0.4-0.6-0.7-0.9-1c-0.4-0.3-0.8-0.5-1.2-0.6
			c-0.5-0.1-1-0.2-1.5-0.2c-0.9,0-1.8,0.2-2.5,0.7c-0.8,0.5-1.4,1.2-1.8,2.1c-0.4,0.9-0.7,2.1-0.7,3.4c0,1.4,0.2,2.5,0.7,3.4
			s1,1.6,1.8,2.1c0.8,0.5,1.6,0.7,2.6,0.7c0.9,0,1.7-0.2,2.4-0.6s1.2-0.9,1.6-1.6s0.6-1.5,0.6-2.4l0.7,0.1h-4.8v-2.1h6.6v1.9
			c0,1.4-0.3,2.6-0.9,3.7c-0.6,1-1.4,1.8-2.5,2.4c-1,0.6-2.2,0.8-3.6,0.8c-1.5,0-2.8-0.3-4-1c-1.1-0.7-2-1.7-2.7-3
			c-0.6-1.3-1-2.8-1-4.6c0-1.3,0.2-2.5,0.6-3.6c0.4-1.1,0.9-2,1.6-2.7c0.7-0.7,1.5-1.3,2.4-1.7c0.9-0.4,1.9-0.6,3-0.6
			c0.9,0,1.7,0.1,2.5,0.4s1.5,0.6,2.1,1.1c0.6,0.5,1.1,1.1,1.5,1.7c0.4,0.7,0.7,1.4,0.8,2.2H833.7z"/>
		<path class="st3" d="M844.7,144c-1.2,0-2.2-0.3-3.1-0.8s-1.6-1.3-2-2.3c-0.5-1-0.7-2.1-0.7-3.4c0-1.3,0.2-2.4,0.7-3.4
			c0.5-1,1.2-1.7,2-2.3s1.9-0.8,3.1-0.8c1.2,0,2.2,0.3,3.1,0.8s1.6,1.3,2,2.3c0.5,1,0.7,2.1,0.7,3.4c0,1.3-0.2,2.4-0.7,3.4
			c-0.5,1-1.2,1.7-2,2.3S845.9,144,844.7,144z M844.7,142c0.8,0,1.4-0.2,1.9-0.6c0.5-0.4,0.9-0.9,1.1-1.6c0.2-0.7,0.4-1.4,0.4-2.2
			c0-0.8-0.1-1.5-0.4-2.2c-0.2-0.7-0.6-1.2-1.1-1.6c-0.5-0.4-1.1-0.6-1.9-0.6c-0.8,0-1.4,0.2-1.9,0.6c-0.5,0.4-0.9,0.9-1.1,1.6
			c-0.2,0.7-0.4,1.4-0.4,2.2c0,0.8,0.1,1.5,0.4,2.2c0.2,0.7,0.6,1.2,1.1,1.6C843.3,141.8,843.9,142,844.7,142z"/>
		<path class="st3" d="M858.5,144c-1.2,0-2.2-0.3-3.1-0.8c-0.9-0.5-1.6-1.3-2-2.3c-0.5-1-0.7-2.1-0.7-3.4c0-1.3,0.2-2.4,0.7-3.4
			s1.2-1.7,2-2.3c0.9-0.5,1.9-0.8,3.1-0.8s2.2,0.3,3.1,0.8c0.9,0.5,1.6,1.3,2,2.3s0.7,2.1,0.7,3.4c0,1.3-0.2,2.4-0.7,3.4
			c-0.5,1-1.2,1.7-2,2.3C860.7,143.8,859.7,144,858.5,144z M858.5,142c0.8,0,1.4-0.2,1.9-0.6c0.5-0.4,0.9-0.9,1.1-1.6
			c0.2-0.7,0.4-1.4,0.4-2.2c0-0.8-0.1-1.5-0.4-2.2c-0.2-0.7-0.6-1.2-1.1-1.6c-0.5-0.4-1.1-0.6-1.9-0.6c-0.8,0-1.4,0.2-1.9,0.6
			c-0.5,0.4-0.9,0.9-1.1,1.6c-0.2,0.7-0.4,1.4-0.4,2.2c0,0.8,0.1,1.5,0.4,2.2c0.2,0.7,0.6,1.2,1.1,1.6
			C857.1,141.8,857.8,142,858.5,142z"/>
		<path class="st3" d="M871.8,144c-1,0-1.9-0.3-2.7-0.8c-0.8-0.5-1.4-1.3-1.9-2.2s-0.7-2.1-0.7-3.5c0-1.4,0.2-2.5,0.7-3.5
			s1.1-1.7,1.9-2.2c0.8-0.5,1.7-0.8,2.7-0.8c0.8,0,1.4,0.1,1.9,0.4c0.5,0.3,0.8,0.6,1.1,0.9c0.3,0.3,0.5,0.6,0.6,0.9h0.1v-6.2h2.4
			v16.7h-2.4v-2h-0.2c-0.1,0.3-0.4,0.6-0.6,0.9c-0.3,0.3-0.7,0.6-1.1,0.9S872.6,144,871.8,144z M872.3,141.9c0.7,0,1.3-0.2,1.8-0.6
			c0.5-0.4,0.9-0.9,1.1-1.6s0.4-1.4,0.4-2.3c0-0.9-0.1-1.6-0.4-2.3c-0.3-0.7-0.6-1.2-1.1-1.5s-1.1-0.5-1.8-0.5
			c-0.7,0-1.3,0.2-1.8,0.6s-0.9,0.9-1.1,1.6c-0.2,0.7-0.4,1.4-0.4,2.2c0,0.8,0.1,1.6,0.4,2.3c0.2,0.7,0.6,1.2,1.1,1.6
			C871,141.8,871.6,141.9,872.3,141.9z"/>
		<path class="st3" d="M892.3,144c-1,0-1.9-0.3-2.7-0.8c-0.8-0.5-1.4-1.3-1.9-2.2s-0.7-2.1-0.7-3.5c0-1.4,0.2-2.5,0.7-3.5
			c0.5-1,1.1-1.7,1.9-2.2c0.8-0.5,1.7-0.8,2.7-0.8c0.8,0,1.4,0.1,1.9,0.4c0.5,0.3,0.8,0.6,1.1,0.9c0.3,0.3,0.5,0.6,0.6,0.9h0.1v-6.2
			h2.4v16.7h-2.4v-2h-0.2c-0.1,0.3-0.4,0.6-0.6,0.9s-0.7,0.6-1.1,0.9C893.7,143.9,893,144,892.3,144z M892.8,141.9
			c0.7,0,1.3-0.2,1.8-0.6s0.9-0.9,1.1-1.6c0.3-0.7,0.4-1.4,0.4-2.3c0-0.9-0.1-1.6-0.4-2.3c-0.3-0.7-0.6-1.2-1.1-1.5
			s-1.1-0.5-1.8-0.5c-0.7,0-1.3,0.2-1.8,0.6s-0.9,0.9-1.1,1.6c-0.2,0.7-0.4,1.4-0.4,2.2c0,0.8,0.1,1.6,0.4,2.3
			c0.2,0.7,0.6,1.2,1.1,1.6C891.5,141.8,892.1,141.9,892.8,141.9z"/>
		<path class="st3" d="M907.4,144c-1.2,0-2.3-0.3-3.2-0.8c-0.9-0.5-1.6-1.3-2.1-2.2s-0.7-2.1-0.7-3.4c0-1.3,0.2-2.4,0.7-3.4
			s1.2-1.7,2-2.3c0.9-0.5,1.9-0.8,3.1-0.8c0.7,0,1.4,0.1,2.1,0.4s1.3,0.6,1.8,1.1c0.5,0.5,0.9,1.2,1.2,1.9c0.3,0.8,0.5,1.8,0.5,2.9
			v0.9h-10v-1.8h7.6c0-0.6-0.1-1.2-0.4-1.7c-0.3-0.5-0.6-0.9-1.1-1.2c-0.5-0.3-1-0.4-1.7-0.4c-0.7,0-1.3,0.2-1.8,0.5
			s-0.9,0.8-1.2,1.3c-0.3,0.5-0.4,1.1-0.4,1.7v1.4c0,0.8,0.1,1.6,0.4,2.1s0.7,1,1.2,1.3c0.5,0.3,1.2,0.5,1.9,0.5
			c0.5,0,0.9-0.1,1.3-0.2c0.4-0.1,0.7-0.3,1-0.6c0.3-0.3,0.5-0.6,0.6-1l2.3,0.4c-0.2,0.7-0.5,1.3-1,1.8s-1.1,0.9-1.8,1.2
			C909.1,143.9,908.3,144,907.4,144z"/>
		<path class="st3" d="M924.9,134.3l-2.2,0.4c-0.1-0.3-0.2-0.6-0.4-0.8c-0.2-0.3-0.5-0.5-0.8-0.6c-0.3-0.2-0.8-0.2-1.3-0.2
			c-0.7,0-1.3,0.2-1.7,0.5s-0.7,0.7-0.7,1.2c0,0.4,0.2,0.8,0.5,1s0.8,0.5,1.5,0.6l2,0.5c1.2,0.3,2,0.7,2.6,1.2s0.8,1.3,0.8,2.2
			c0,0.8-0.2,1.4-0.6,2c-0.4,0.6-1,1-1.8,1.4c-0.8,0.3-1.7,0.5-2.7,0.5c-1.4,0-2.6-0.3-3.4-0.9c-0.9-0.6-1.4-1.5-1.6-2.6l2.4-0.4
			c0.1,0.6,0.4,1.1,0.9,1.4c0.5,0.3,1.1,0.5,1.8,0.5c0.8,0,1.4-0.2,1.9-0.5s0.7-0.7,0.7-1.2c0-0.4-0.1-0.7-0.4-1
			c-0.3-0.3-0.7-0.5-1.3-0.6l-2.1-0.5c-1.2-0.3-2-0.7-2.6-1.3c-0.6-0.6-0.8-1.3-0.8-2.2c0-0.7,0.2-1.4,0.6-1.9s1-1,1.7-1.3
			c0.7-0.3,1.6-0.5,2.5-0.5c1.4,0,2.4,0.3,3.2,0.9C924.1,132.5,924.6,133.3,924.9,134.3z"/>
		<path class="st3" d="M929,129.3c-0.4,0-0.8-0.1-1.1-0.4c-0.3-0.3-0.5-0.6-0.5-1c0-0.4,0.2-0.7,0.5-1c0.3-0.3,0.7-0.4,1.1-0.4
			s0.8,0.1,1.1,0.4c0.3,0.3,0.5,0.6,0.5,1c0,0.4-0.2,0.7-0.5,1C929.8,129.2,929.5,129.3,929,129.3z M927.8,143.8v-12.5h2.4v12.5
			H927.8z"/>
		<path class="st3" d="M938.8,148.7c-1,0-1.9-0.1-2.6-0.4c-0.7-0.3-1.3-0.6-1.8-1c-0.5-0.4-0.8-0.9-1-1.4l2.1-0.9
			c0.1,0.2,0.3,0.5,0.6,0.8c0.2,0.3,0.6,0.5,1,0.7c0.4,0.2,1,0.3,1.7,0.3c0.9,0,1.7-0.2,2.3-0.7c0.6-0.4,0.9-1.2,0.9-2.1v-2.5h-0.2
			c-0.1,0.3-0.4,0.6-0.6,0.9c-0.3,0.3-0.7,0.6-1.1,0.8c-0.5,0.2-1.1,0.4-1.9,0.4c-1,0-1.9-0.2-2.7-0.7c-0.8-0.5-1.4-1.2-1.9-2.1
			c-0.5-0.9-0.7-2-0.7-3.4s0.2-2.5,0.7-3.4s1.1-1.7,1.9-2.2c0.8-0.5,1.7-0.8,2.7-0.8c0.8,0,1.4,0.1,1.9,0.4c0.5,0.3,0.9,0.6,1.1,0.9
			c0.3,0.3,0.5,0.6,0.6,0.9h0.2v-2h2.4v12.8c0,1.1-0.2,2-0.8,2.7c-0.5,0.7-1.2,1.2-2,1.5C940.8,148.6,939.9,148.7,938.8,148.7z
			 M938.8,141.6c0.7,0,1.3-0.2,1.8-0.5c0.5-0.3,0.9-0.8,1.1-1.4s0.4-1.4,0.4-2.2c0-0.8-0.1-1.6-0.4-2.2c-0.2-0.6-0.6-1.1-1.1-1.5
			s-1.1-0.5-1.8-0.5c-0.7,0-1.3,0.2-1.8,0.6c-0.5,0.4-0.9,0.9-1.1,1.5c-0.2,0.6-0.4,1.4-0.4,2.2c0,0.8,0.1,1.5,0.4,2.2
			c0.3,0.6,0.6,1.1,1.1,1.5C937.4,141.4,938,141.6,938.8,141.6z"/>
		<path class="st3" d="M950.2,136.3v7.4h-2.4v-12.5h2.3v2h0.2c0.3-0.7,0.7-1.2,1.4-1.6c0.6-0.4,1.4-0.6,2.3-0.6
			c0.9,0,1.6,0.2,2.2,0.5s1.1,0.9,1.5,1.6c0.4,0.7,0.5,1.6,0.5,2.6v8h-2.4v-7.7c0-0.9-0.2-1.6-0.7-2.1s-1.1-0.8-2-0.8
			c-0.6,0-1.1,0.1-1.5,0.4s-0.8,0.6-1,1.1C950.3,135.1,950.2,135.7,950.2,136.3z"/>
	</g>
</g>
</svg>
