<svg version="1.1" xmlns="http://www.w3.org/2000/svg" viewBox="0 0 2000 750">
	<!-- svg-source:excalidraw -->

	<defs>
		<style class="style-fonts">
			@import url("layering.css");
		</style>

	</defs>

	<!-- First SVG content (curve-shipping-hlf.svg) positioned at x=0 -->
	<g id="hlf">
		<g
			transform="translate(54.12828826904297 16.621008254960202) rotate(0 -0.15267868530509077 288.6000491265208)">
			<path
				d="M-0.22 -0.66 C0.16 177.93, -2.53 353.1, -1.25 577.21 M-0.14 0.31 C1.72 136.06, 1.49 272.49, 0.74 577.86"
				class="grid"></path>
		</g>
		<g
			transform="translate(20.96758270263672 568.0333922881633) rotate(0 450.4521531607955 -0.0043791993890067715)">
			<path
				d="M1.36 0.96 C183.51 2.15, 368.41 2.23, 900.03 0.73 M-0.38 0.11 C354.79 -2.2, 711.54 -2.89, 901.29 0.29"
				class="grid"></path>
		</g>
		<g transform="translate(632.2835006713868 576.9645446319134) rotate(0 138.17994689941406 17.5)">
			<text x="276.3598937988281" y="24.528" class="label">Use case complexity</text>
		</g>
		<g transform="translate(-64.42395782470703 92.66074214167895) rotate(270 91.92395782470703 17.5)">
			<text x="183.84791564941406" y="24.528" class="label">UI complexity</text>
		</g>
		<g
			transform="translate(81.72299116998909 542.4620118938387) rotate(0 52.42567823115735 -44.90026070002466)">
			<path
				d="M0.98 -0.66 C11.2 -10.74, 45 -44.96, 62.63 -59 C80.26 -73.05, 99.7 -80.53, 106.78 -84.93 M-1.93 -3.48 C8.01 -13.36, 43.95 -41.97, 61.68 -56.24 C79.42 -70.52, 97.38 -83.46, 104.48 -89.14"
				class="curve mvp"></path>
		</g>
		<g
			transform="translate(76.7153409902379 538.4269369402156) rotate(0 226.77950685452674 -164.5143408918381)">
			<path
				d="M2.07 -1.69 C47.54 -37.18, 197.52 -155.92, 272.81 -210.24 C348.1 -264.56, 423.46 -307.51, 453.81 -327.62 M-0.25 3.56 C44.97 -30.29, 196.01 -150.9, 271.28 -206.92 C346.54 -262.95, 420.64 -312.16, 451.33 -332.59"
				class="curve v1"></path>
		</g>

		<text x="200" y="350" class="version v1">v1.0</text>

		<text x="90" y="520" class="version mvp">MVP</text>

		<g
			transform="translate(79.51284539327014 540.4364052440972) rotate(0 389.4478582825512 -265.6141418006271)">
			<path
				d="M-0.85 -0.79 C63.8 -49.76, 258.76 -203.12, 388.86 -291.4 C518.96 -379.67, 714.88 -490.73, 779.75 -530.44 M3.88 -3.69 C68.15 -52.34, 258.12 -208.84, 387.08 -296.06 C516.04 -383.29, 712.59 -487.22, 777.65 -527.03"
				class="curve v2"></path>
		</g>
		<text x="300" y="250" class="version v2">v2.0</text>
	</g>

	<!-- Second SVG content (curve-shipping-llf.svg) positioned at x=1000 -->
	<g transform="translate(1000, 0)" id="llf">
		<g
			transform="translate(54.12828826904297 10.663425992429268) rotate(0 -0.15267868530509077 288.6000491265208)">
			<path
				d="M-0.22 -0.66 C0.16 177.93, -2.53 353.1, -1.25 577.21 M-0.14 0.31 C1.72 136.06, 1.49 272.49, 0.74 577.86"
				class="grid"></path>
		</g>
		<g
			transform="translate(20.96758270263672 562.0758100256323) rotate(0 450.4521531607955 -0.0043791993890067715)">
			<path
				d="M1.36 0.96 C183.51 2.15, 368.41 2.23, 900.03 0.73 M-0.38 0.11 C354.79 -2.2, 711.54 -2.89, 901.29 0.29"
				class="grid"></path>
		</g>
		<g transform="translate(632.2835006713868 571.0069623693826) rotate(0 138.17994689941406 17.5)">
			<text x="276.3598937988281" y="24.528" class="label">Use case complexity</text>
		</g>
		<g transform="translate(-64.42395782470703 86.70315987914802) rotate(270 91.92395782470703 17.5)">
			<text x="183.84791564941406" y="24.528" class="label">UI complexity</text>
		</g>
		<g
			transform="translate(96.98639811914416 253.67431073237213) rotate(0 361.0088532209396 -115.89385219686267)">
			<path
				d="M2.07 -1.69 C46.69 -11.32, 191.6 -20, 267.69 -55.09 C343.77 -90.18, 382.92 -182.45, 458.59 -212.24 C534.27 -242.02, 677.61 -230.71, 721.75 -233.8 M-0.25 3.56 C44.11 -4.43, 190.09 -14.98, 266.15 -51.77 C342.21 -88.57, 380.1 -187.1, 456.12 -217.21 C532.14 -247.32, 678.16 -230.38, 722.26 -232.42"
				class="curve v1"></path>
		</g>
		<g transform="translate(96.73739261426033 30.964968001097475) rotate(0 41.991761372759925 22.5)">
			<text x="0" y="31.536" class="version mvp">MVP</text>
		</g>
		<g transform="translate(94.03939568623889 263.39575413391) rotate(0 37.703797505572425 22.5)">
			<text x="0" y="31.536" class="version v1">v1.0</text>
		</g>
		<g
			transform="translate(827.3993200026451 21.446596419066225) rotate(0 -367.2206118148192 -1.6590218827425645)">
			<path
				d="M0.33 -0.43 C-121.9 -0.13, -609.8 0.89, -731.88 0.77 M-2.93 -3.13 C-125.78 -3.63, -612.8 -4.57, -734.77 -3.82"
				class="curve mvp"></path>
		</g>
		<g
			transform="translate(79.01968497429027 537.9057462708652) rotate(0 372.19260856628415 -260.27157812860764)">
			<path
				d="M1.9 -2.37 C44.28 -47.79, 177.02 -189.45, 255.36 -271.42 C333.7 -353.38, 390.61 -453.89, 471.93 -494.15 C553.25 -534.41, 698.57 -509.2, 743.28 -512.99 M-0.52 2.51 C41.44 -42.64, 175.03 -184.92, 253.4 -268.54 C331.77 -352.15, 387.77 -457.62, 469.69 -499.16 C551.61 -540.7, 699.07 -514.83, 744.9 -517.77"
				class="curve v2"></path>
		</g>
		<g transform="translate(145.54549808301033 475.71411350891) rotate(0 41.35873524971305 22.5)">
			<text x="0" y="31.536" class="version v2">v2.0</text>
		</g>
	</g>

	<text x="300" y="700" class="caption">High-level first</text>
	<text x="1350" y="700" class="caption">Low-level first</text>
</svg>
