<svg width="89" height="44" viewBox="0 0 89 44" fill="none" xmlns="http://www.w3.org/2000/svg">
<path fill-rule="evenodd" clip-rule="evenodd" d="M58.0517 39.3597C58.464 39.7456 59.2272 40 59.8675 40C61.0605 40 61.9903 39.3333 61.9903 38.193C61.9903 37.3422 61.4727 36.8509 60.5078 36.4474L59.8412 36.1667C59.4815 36.0176 59.3412 35.9124 59.3412 35.6931C59.3412 35.4299 59.5605 35.3246 59.8587 35.3246C60.169 35.3246 60.3376 35.4551 60.4921 35.5746L60.4921 35.5746C60.5297 35.6037 60.5665 35.6322 60.6043 35.658C60.7359 35.7545 60.8675 35.7896 60.9903 35.7896C61.3236 35.7896 61.6657 35.5001 61.6657 35.1141C61.6657 34.9738 61.6219 34.8159 61.4903 34.6668C61.3499 34.5001 60.8587 33.9913 59.8412 34.0001C58.6921 34.0001 57.8149 34.6755 57.8149 35.7106C57.8149 36.5264 58.3588 37.0527 59.2798 37.4562L59.8763 37.7193C60.2798 37.8948 60.464 37.9825 60.464 38.2544C60.464 38.5351 60.271 38.6755 59.8675 38.6755C59.3642 38.6755 59.0247 38.3964 58.8489 38.252C58.8133 38.2228 58.7844 38.199 58.7623 38.1842C58.657 38.1141 58.5342 38.079 58.4202 38.079C58.0781 38.079 57.7535 38.3421 57.7447 38.7456C57.7447 38.9737 57.8588 39.1754 58.0517 39.3597ZM77.9115 34.7808C77.9115 34.3334 77.5957 34.0001 77.1572 34.0001C76.8502 34.0001 76.6396 34.1492 76.394 34.5527L74.9642 36.8509L73.5344 34.5527C73.2888 34.1492 73.0783 34.0001 72.7713 34.0001C72.3327 34.0001 72.0169 34.3334 72.0169 34.7808V39.2369C72.0169 39.6754 72.3415 40 72.7713 40C73.2011 40 73.5257 39.6754 73.5257 39.2369V37.2106L74.28 38.4123C74.4906 38.7456 74.6835 38.8772 74.9642 38.8772C75.2449 38.8772 75.4379 38.7456 75.6484 38.4123L76.4028 37.2106V39.2369C76.4028 39.6754 76.7273 40 77.1572 40C77.587 40 77.9115 39.6754 77.9115 39.2369L77.9115 34.7808ZM80.5157 39.1316C80.5157 39.5702 80.8403 39.8947 81.2789 39.8947L84.0332 39.8947C84.4279 39.8947 84.7262 39.6053 84.7262 39.2105C84.7262 38.8246 84.4367 38.5351 84.0332 38.5351L82.0245 38.5351V37.5264L83.235 37.5264C83.6034 37.5264 83.8753 37.2544 83.8753 36.8948C83.8753 36.5352 83.6034 36.2632 83.235 36.2632L82.0245 36.2632V35.465L83.9279 35.465C84.3227 35.465 84.6209 35.1755 84.6209 34.7808C84.6209 34.3949 84.3314 34.1054 83.9279 34.1054L81.2789 34.1054C80.8403 34.1054 80.5157 34.4299 80.5157 34.8685V39.1316ZM66.8778 34.0001C68.6322 34.0001 70.0094 35.3247 70.0094 37.0001C70.0094 38.6842 68.6322 40 66.8778 40C65.1235 40 63.7639 38.6842 63.7639 37.0001C63.7639 35.3159 65.1323 34.0001 66.8778 34.0001ZM66.8866 35.3861C65.948 35.3861 65.3077 36.0439 65.3077 37.0001C65.3077 37.965 65.9393 38.6141 66.8866 38.6141C67.8164 38.6141 68.4655 37.9474 68.4655 37.0001C68.4655 36.0615 67.8076 35.3861 66.8866 35.3861ZM52.1721 39.8947C51.7335 39.8947 51.4089 39.5702 51.4089 39.1316V34.8685C51.4089 34.4299 51.7335 34.1054 52.1721 34.1054L54.8211 34.1054C55.2246 34.1054 55.5141 34.3948 55.5141 34.7808C55.5141 35.1755 55.2159 35.465 54.8211 35.465L52.9177 35.465V36.2632L54.1282 36.2632C54.4966 36.2632 54.7685 36.5352 54.7685 36.8948C54.7685 37.2544 54.4966 37.5264 54.1282 37.5264L52.9177 37.5264V38.5351L54.9264 38.5351C55.3299 38.5351 55.6194 38.8246 55.6194 39.2105C55.6194 39.6053 55.3211 39.8947 54.9264 39.8947L52.1721 39.8947ZM49.4429 34.7369C49.443 34.3334 49.1009 34.0001 48.6886 34.0001C48.364 34.0001 48.1009 34.1843 47.9868 34.5001L46.943 37.3597L45.9781 34.5703C45.8465 34.2019 45.5834 34.0001 45.2325 34.0001C44.8816 34.0001 44.6185 34.2019 44.4869 34.5703L43.522 37.3597L42.4694 34.4738C42.3641 34.1756 42.101 34.0001 41.7764 34.0001C41.3642 34.0001 41.0221 34.3334 41.0221 34.7369C41.0221 34.8422 41.0396 34.9387 41.101 35.079L42.8115 39.4912C42.9343 39.8246 43.1799 40 43.5132 40C43.8378 40 44.0834 39.8246 44.2062 39.4912L45.2325 36.7106L46.2588 39.4912C46.3816 39.8246 46.6272 40 46.9518 40C47.2851 40 47.5307 39.8246 47.6535 39.4912L49.364 35.079C49.4166 34.9475 49.4429 34.851 49.4429 34.7369ZM40.0269 38.9123C40.0795 39.0439 40.1058 39.1755 40.1058 39.2807C40.1058 39.693 39.7901 40 39.3602 40C39.0357 40 38.7901 39.8158 38.6497 39.4561L38.5269 39.1491L36.4568 39.1491L36.334 39.4561C36.1936 39.8158 35.948 40 35.6235 40C35.1936 40 34.8779 39.693 34.8779 39.2807C34.8779 39.1755 34.9042 39.0439 34.9568 38.9123L36.7726 34.5001C36.9041 34.1756 37.1498 34.0001 37.4919 34.0001C37.834 34.0001 38.0796 34.1756 38.2111 34.5001L40.0269 38.9123ZM37.4919 36.2457L36.9041 37.9386L38.0796 37.9386L37.4919 36.2457ZM15.9373 37.0001C15.9373 35.3247 14.5602 34.0001 12.8058 34.0001C11.0602 34.0001 9.69184 35.3159 9.69184 37.0001C9.69184 38.6842 11.0515 40 12.8058 40C14.5602 40 15.9373 38.6842 15.9373 37.0001ZM11.2357 37.0001C11.2357 36.0439 11.876 35.3861 12.8146 35.3861C13.7356 35.3861 14.3935 36.0615 14.3935 37.0001C14.3935 37.9474 13.7444 38.6141 12.8146 38.6141C11.8672 38.6141 11.2357 37.965 11.2357 37.0001ZM22.322 34.0001C22.7518 34.0001 23.0764 34.3247 23.0764 34.7633L23.0764 39.2369C23.0764 39.6667 22.7606 40 22.3395 40C21.952 40 21.7815 39.7907 21.5948 39.5615L21.5589 39.5176L19.4536 36.9123V39.2369C19.4536 39.6754 19.1291 40 18.6993 40C18.2694 40 17.9449 39.6754 17.9449 39.2369L17.9449 34.7633C17.9449 34.3334 18.2607 34.0001 18.6817 34.0001C19.0693 34.0001 19.2398 34.2094 19.4265 34.4386L19.4624 34.4826L21.5676 37.079L21.5676 34.7633C21.5676 34.3247 21.8922 34.0001 22.322 34.0001ZM27.6275 40C27.1977 40 26.8732 39.6754 26.8732 39.2369L26.8732 35.465L25.7416 35.465C25.3469 35.465 25.0486 35.1755 25.0486 34.7808C25.0486 34.3948 25.3469 34.1054 25.7416 34.1054L29.5135 34.1054C29.917 34.1054 30.2064 34.3948 30.2064 34.7808C30.2064 35.1755 29.9082 35.465 29.5135 35.465L28.3819 35.465V39.2369C28.3819 39.6754 28.0574 40 27.6275 40ZM4.75437 40C4.31578 40 4 39.6754 4 39.2368V34.8685C4 34.4299 4.32456 34.1054 4.76314 34.1054L7.3245 34.1054C7.728 34.1054 8.01747 34.3948 8.01747 34.7808C8.01747 35.1755 7.71923 35.465 7.3245 35.465L5.50874 35.465L5.50874 36.5702L6.86836 36.5702C7.27187 36.5702 7.56133 36.8597 7.56133 37.2457C7.56133 37.6404 7.26309 37.9299 6.86836 37.9299L5.50874 37.9299L5.50874 39.2368C5.50874 39.6754 5.19296 40 4.75437 40Z" fill="#193154"/>
<path fill-rule="evenodd" clip-rule="evenodd" d="M39.8664 9C40.3222 8.71217 40.625 8.20394 40.625 7.625C40.625 6.72754 39.8975 6 39 6C38.1025 6 37.375 6.72754 37.375 7.625C37.375 8.14533 37.6196 8.60854 38 8.90596V9V20V22H40V20H51.6751C52.1307 20 52.5 19.6307 52.5 19.1751C52.5 19.0596 52.4758 18.9455 52.4289 18.84L50.5 14.5L52.4289 10.16C52.4758 10.0545 52.5 9.94036 52.5 9.82494C52.5 9.36934 52.1307 9 51.6751 9H39.8664Z" fill="#418FDE"/>
</svg>
