<?xml version="1.0" encoding="UTF-8"?>
<svg id="Layer_1" xmlns="http://www.w3.org/2000/svg" xmlns:xlink="http://www.w3.org/1999/xlink" version="1.1" viewBox="0 0 1200 630">
  <!-- Generator: Adobe Illustrator 29.1.0, SVG Export Plug-In . SVG Version: 2.1.0 Build 142)  -->
  <defs>
    <style>
      .st0 {
        fill: #33473c;
      }

      .st1, .st2 {
        fill: #3a9349;
      }

      .st3, .st4, .st2, .st5 {
        stroke: #fff;
      }

      .st3, .st2, .st5 {
        stroke-miterlimit: 10;
        stroke-width: 3px;
      }

      .st3, .st6 {
        fill: #a52020;
      }

      .st4 {
        opacity: .5;
        stroke-linejoin: round;
        stroke-width: 18px;
      }

      .st4, .st5 {
        fill: none;
        stroke-linecap: round;
      }

      .st7 {
        fill: #fff;
      }

      .st8 {
        fill: #1a2b21;
      }
    </style>
    <symbol id="Radio" viewBox="0 0 43.91 43.91">
      <path class="st7" d="M39.8,21.96c0-9.85-7.99-17.84-17.84-17.84S4.12,12.1,4.12,21.96s7.99,17.84,17.84,17.84,17.84-7.99,17.84-17.84ZM0,21.96C0,9.83,9.83,0,21.96,0s21.96,9.83,21.96,21.96-9.83,21.96-21.96,21.96S0,34.08,0,21.96Z"/>
    </symbol>
  </defs>
  <rect class="st0" width="1200" height="630"/>
  <rect class="st8" width="658" height="630"/>
  <rect class="st6" x="495.94" y="220" width="74.61" height="321" rx="10" ry="10"/>
  <rect class="st1" x="405.5" y="220" width="74.61" height="321" rx="10" ry="10"/>
  <g>
    <use width="43.91" height="43.91" transform="translate(336.38 314.76) scale(.79)" xlink:href="#Radio"/>
    <use width="43.91" height="43.91" transform="translate(425.96 314.76) scale(.79)" xlink:href="#Radio"/>
    <use width="43.91" height="43.91" transform="translate(515.54 314.76) scale(.79)" xlink:href="#Radio"/>
  </g>
  <line class="st5" x1="68" y1="284.02" x2="590" y2="284.02"/>
  <g>
    <use width="43.91" height="43.91" transform="translate(336.38 400.41) scale(.79)" xlink:href="#Radio"/>
    <path class="st7" d="M457.23,417.66c0-7.74-6.28-14.02-14.02-14.02s-14.02,6.28-14.02,14.02,6.28,14.02,14.02,14.02,14.02-6.28,14.02-14.02ZM425.96,417.66c0-9.53,7.72-17.25,17.25-17.25s17.25,7.72,17.25,17.25-7.72,17.25-17.25,17.25-17.25-7.72-17.25-17.25ZM443.21,411.19c3.57,0,6.47,2.9,6.47,6.47s-2.9,6.47-6.47,6.47-6.47-2.9-6.47-6.47,2.9-6.47,6.47-6.47Z"/>
    <use width="43.91" height="43.91" transform="translate(515.54 400.41) scale(.79)" xlink:href="#Radio"/>
  </g>
  <g>
    <use width="43.91" height="43.91" transform="translate(336.38 486.06) scale(.79)" xlink:href="#Radio"/>
    <use width="43.91" height="43.91" transform="translate(425.96 486.06) scale(.79)" xlink:href="#Radio"/>
    <use width="43.91" height="43.91" transform="translate(515.54 486.06) scale(.79)" xlink:href="#Radio"/>
  </g>
  <use width="43.91" height="43.91" transform="translate(720.46 323.05) scale(.79)" xlink:href="#Radio"/>
  <path class="st7" d="M751.74,417.96c0-7.74-6.28-14.02-14.02-14.02s-14.02,6.28-14.02,14.02,6.28,14.02,14.02,14.02,14.02-6.28,14.02-14.02ZM720.46,417.96c0-9.53,7.72-17.25,17.25-17.25s17.25,7.72,17.25,17.25-7.72,17.25-17.25,17.25-17.25-7.72-17.25-17.25ZM737.72,411.49c3.57,0,6.47,2.9,6.47,6.47s-2.9,6.47-6.47,6.47-6.47-2.9-6.47-6.47,2.9-6.47,6.47-6.47Z"/>
  <use width="43.91" height="43.91" transform="translate(720.46 478.35) scale(.79)" xlink:href="#Radio"/>
  <rect class="st2" x="891.96" y="401.54" width="105.68" height="32.61" rx="16.31" ry="16.31"/>
  <rect class="st3" x="1015.62" y="401.54" width="101.26" height="32.61" rx="16.31" ry="16.31"/>
  <path class="st7" d="M910.93,410.04c-.7-.7-1.84-.7-2.55,0l-5.4,5.4c-.7.7-.7,1.84,0,2.55s1.84.7,2.55,0l2.33-2.33v9.38c0,1,.8,1.8,1.8,1.8s1.8-.8,1.8-1.8v-9.38l2.33,2.33c.7.7,1.84.7,2.55,0s.7-1.84,0-2.55l-5.4-5.4h0Z"/>
  <path class="st7" d="M1040.13,420.91c.7-.7.7-1.84,0-2.55s-1.84-.7-2.55,0l-2.32,2.32v-9.38c0-1-.8-1.8-1.8-1.8s-1.8.8-1.8,1.8v9.38l-2.33-2.33c-.7-.7-1.84-.7-2.55,0s-.7,1.84,0,2.55l5.4,5.4c.7.7,1.84.7,2.55,0l5.4-5.4h0Z"/>
  <line class="st4" x1="784.78" y1="339.93" x2="989.7" y2="339.93"/>
  <line class="st4" x1="784.78" y1="418" x2="856.32" y2="418"/>
  <line class="st4" x1="784.78" y1="496.08" x2="935.82" y2="496.08"/>
  <line class="st4" x1="84.2" y1="331.93" x2="289.11" y2="331.93"/>
  <line class="st4" x1="214.04" y1="418" x2="289.11" y2="418"/>
  <line class="st4" x1="138.08" y1="504.08" x2="289.11" y2="504.08"/>
  <path class="st7" d="M444.74,239.9c-1-1-2.63-1-3.63,0l-7.69,7.69c-1,1-1,2.63,0,3.63s2.63,1,3.63,0l3.32-3.32v13.36c0,1.42,1.15,2.56,2.56,2.56s2.56-1.15,2.56-2.56v-13.36l3.32,3.32c1,1,2.63,1,3.63,0s1-2.63,0-3.63l-7.69-7.69h0Z"/>
  <path class="st7" d="M542.2,254.39c1-1,1-2.63,0-3.63s-2.63-1-3.63,0l-3.31,3.31v-13.36c0-1.42-1.15-2.56-2.56-2.56s-2.56,1.15-2.56,2.56v13.36l-3.32-3.32c-1-1-2.63-1-3.63,0s-1,2.63,0,3.63l7.69,7.69c1,1,2.63,1,3.63,0l7.69-7.69h0Z"/>
  <g>
    <path d="M941.66,415.36c-3.3,0-5.98,2.68-5.98,5.98v24.84c-2.13-2.19-5.62-2.42-8.04-.46-2.56,2.08-2.96,5.85-.88,8.41l8.02,9.87c3.08,3.79,7.7,6,12.59,6h13.9c6.61,0,11.95-5.35,11.95-11.95v-11.95c0-3.77-3.06-6.83-6.83-6.83-.84,0-1.64.15-2.39.43-1.11-2.27-3.45-3.84-6.15-3.84-.84,0-1.64.15-2.39.43-1.11-2.27-3.45-3.84-6.15-3.84-.59,0-1.16.07-1.71.21v-11.31c0-3.3-2.68-5.98-5.98-5.98Z"/>
    <path class="st7" d="M939.1,421.34c0-1.42,1.14-2.56,2.56-2.56s2.56,1.14,2.56,2.56v14.11c0,.67.39,1.28,1.01,1.56s1.33.16,1.84-.29c.61-.54,1.4-.86,2.27-.86,1.79,0,3.28,1.39,3.4,3.15.05.65.46,1.22,1.07,1.46s1.29.12,1.78-.32c.61-.54,1.41-.88,2.28-.88,1.79,0,3.28,1.39,3.4,3.15.05.65.46,1.22,1.07,1.46s1.29.12,1.78-.32c.61-.54,1.41-.88,2.28-.88,1.89,0,3.41,1.53,3.41,3.41v11.95c0,4.72-3.82,8.54-8.54,8.54h-13.9c-3.85,0-7.5-1.74-9.93-4.73l-8.02-9.88c-.9-1.1-.73-2.71.37-3.61s2.71-.73,3.61.37l2.67,3.28c.46.57,1.22.78,1.9.53s1.13-.89,1.13-1.61v-29.6Z"/>
    <path d="M949.34,449.51c0-.94-.77-1.71-1.71-1.71s-1.71.77-1.71,1.71v10.24c0,.94.77,1.71,1.71,1.71s1.71-.77,1.71-1.71v-10.24Z"/>
    <path d="M956.17,449.51c0-.94-.77-1.71-1.71-1.71s-1.71.77-1.71,1.71v10.24c0,.94.77,1.71,1.71,1.71s1.71-.77,1.71-1.71v-10.24Z"/>
    <path d="M963,449.51c0-.94-.77-1.71-1.71-1.71s-1.71.77-1.71,1.71v10.24c0,.94.77,1.71,1.71,1.71s1.71-.77,1.71-1.71v-10.24Z"/>
  </g>
  <path class="st7" d="M372.6,234.82c1.05,1.05,1.05,2.76,0,3.82l-21.57,21.57c-1.05,1.05-2.76,1.05-3.82,0l-10.79-10.79c-1.05-1.05-1.05-2.76,0-3.82s2.76-1.05,3.82,0l8.88,8.87,19.67-19.66c1.05-1.05,2.76-1.05,3.82,0h0Z"/>
  <g>
    <path class="st7" d="M1004,407.59c0-6.63-5.37-12-12-12s-12,5.37-12,12h0c0,6.63,5.37,12,12,12s12-5.37,12-12Z"/>
    <path class="st1" d="M997.61,403.99c.52.52.52,1.37,0,1.88l-6,6c-.52.52-1.37.52-1.88,0l-3.33-3.33c-.52-.52-.52-1.37,0-1.88s1.37-.52,1.88,0l2.39,2.39,5.06-5.06c.52-.52,1.37-.52,1.88,0h0Z"/>
  </g>
  <g>
    <path d="M596.37,167.8c6.12-9.25,14.32-17.33,24.55-23.42,36.36-21.8,83.49-10.01,105.29,26.35l5.95,9.99-15.96-3.99c-8.24-2.06-16.55,2.93-18.61,11.16s2.93,16.55,11.16,18.61l51.88,12.98h0l.19.05c8.24,2.06,16.55-2.93,18.61-11.16l13.04-52.11c2.06-8.24-2.93-16.55-11.16-18.61-8.24-2.06-16.55,2.93-18.61,11.16l-4.1,16.38-6.09-10.23c-30.52-50.9-96.5-67.41-147.4-36.89-14.19,8.51-25.72,19.82-34.32,32.84-4.69,7.08-2.71,16.58,4.32,21.25,7.04,4.68,16.58,2.71,21.25-4.32v-.05Z"/>
    <path class="st7" d="M591.95,151.81c6.47-9.01,14.97-16.78,25.42-22.48,37.15-20.41,83.81-6.85,104.22,30.31l5.57,10.21-15.8-4.59c-8.15-2.37-16.65,2.3-19.02,10.45s2.3,16.65,10.45,19.02l51.35,14.93h0l.18.05c8.15,2.37,16.65-2.3,19.02-10.45l15-51.58c2.37-8.15-2.3-16.65-10.45-19.02s-16.65,2.3-19.02,10.45l-4.71,16.21-5.7-10.45c-28.58-52.02-93.89-71.01-145.9-42.43-14.51,7.97-26.45,18.83-35.54,31.52-4.95,6.9-3.34,16.46,3.52,21.4,6.85,4.94,16.46,3.34,21.4-3.52v-.05Z"/>
  </g>
</svg>